<?xml version="1.0" standalone="no"?>
<!DOCTYPE svg PUBLIC "-//W3C//DTD SVG 20010904//EN"
 "http://www.w3.org/TR/2001/REC-SVG-20010904/DTD/svg10.dtd">
<svg version="1.0" xmlns="http://www.w3.org/2000/svg"
 width="1163.000000pt" height="1163.000000pt" viewBox="0 0 1163.000000 1163.000000"
 preserveAspectRatio="xMidYMid meet">
<metadata>
Created by potrace 1.14, written by Peter Selinger 2001-2017
</metadata>
<g transform="translate(0.000000,1163.000000) scale(0.100000,-0.100000)"
fill="#000000" stroke="none">
<path d="M8301 8969 c-649 -72 -1192 -421 -1544 -990 -210 -340 -362 -751
-438 -1179 -54 -308 -61 -413 -66 -994 -5 -579 1 -750 38 -1016 106 -769 451
-1462 934 -1877 449 -387 1013 -561 1659 -514 491 36 913 174 1283 420 157
105 282 211 432 367 l124 129 -2 755 c0 415 -4 945 -8 1178 l-6 422 -1039 0
-1038 0 0 -340 0 -340 649 0 c358 0 652 -3 654 -7 2 -5 2 -331 -1 -726 l-5
-718 -70 -75 c-105 -113 -215 -184 -397 -258 -336 -137 -883 -164 -1212 -60
-275 87 -539 287 -720 544 -174 248 -313 594 -388 970 -60 302 -65 374 -65
1050 0 639 4 727 46 985 47 287 145 599 263 833 204 406 551 674 956 738 130
21 425 15 540 -11 253 -56 448 -163 619 -340 195 -201 317 -456 396 -827 l17
-78 403 0 404 0 -5 33 c-27 203 -41 282 -70 397 -103 401 -322 770 -609 1022
-297 261 -676 432 -1096 494 -134 19 -512 27 -638 13z"/>
<path d="M1050 5685 l0 -3205 395 0 395 0 0 1378 c0 1269 -2 1469 -30 2556
-17 648 -29 1180 -28 1182 2 1 244 -741 537 -1649 294 -909 538 -1660 543
-1669 8 -16 30 -18 238 -18 126 0 231 4 234 9 3 5 267 771 587 1702 319 932
585 1701 590 1709 5 9 6 -43 3 -125 -3 -77 -18 -689 -35 -1361 -25 -1074 -29
-1369 -29 -2467 l0 -1247 395 0 395 0 0 3205 0 3205 -506 -2 -507 -3 -553
-1575 c-305 -866 -558 -1584 -562 -1595 -7 -15 -34 58 -116 310 -60 182 -293
899 -520 1595 l-411 1265 -508 3 -507 2 0 -3205z"/>
</g>
</svg>
