<?xml version="1.0" standalone="no"?>
<!DOCTYPE svg PUBLIC "-//W3C//DTD SVG 20010904//EN"
 "http://www.w3.org/TR/2001/REC-SVG-20010904/DTD/svg10.dtd">
<svg version="1.0" xmlns="http://www.w3.org/2000/svg"
 width="1163.000000pt" height="1163.000000pt" viewBox="0 0 1163.000000 1163.000000"
 preserveAspectRatio="xMidYMid meet">
<metadata>
Created by potrace 1.11, written by Peter Selinger 2001-2013
</metadata>
<g transform="translate(0.000000,1163.000000) scale(0.100000,-0.100000)"
fill="#000000" stroke="none">
<path d="M9208 8765 c-2 -2 -36 -6 -76 -9 -369 -31 -682 -115 -978 -262 -457
-226 -796 -548 -1051 -999 -59 -104 -153 -300 -153 -318 0 -7 -4 -17 -9 -22
-21 -21 -136 -393 -155 -497 -2 -15 -7 -31 -9 -35 -3 -5 -12 -53 -22 -108 -9
-55 -18 -111 -20 -125 -3 -14 -7 -50 -11 -80 -3 -30 -7 -66 -10 -80 -23 -135
-23 -744 1 -869 1 -9 6 -43 9 -76 4 -33 11 -85 16 -115 5 -30 12 -73 16 -95
10 -74 55 -259 91 -380 242 -818 798 -1400 1598 -1672 126 -43 354 -98 445
-108 19 -3 46 -7 60 -9 14 -3 52 -8 85 -11 33 -4 71 -8 84 -10 38 -6 289 -18
386 -18 84 0 331 11 400 18 17 1 68 6 115 9 47 4 98 10 115 12 16 3 50 7 75 9
115 10 328 46 480 80 79 17 271 73 380 110 74 25 136 45 137 45 2 0 3 653 3
1450 0 1153 -3 1450 -12 1451 -7 0 -20 2 -28 4 -39 9 -79 15 -125 19 -27 3
-66 7 -85 10 -108 15 -320 29 -445 29 -75 0 -303 -12 -332 -17 -10 -2 -49 -7
-88 -10 -38 -4 -77 -9 -85 -11 -8 -2 -42 -6 -75 -10 -106 -10 -115 -14 -116
-43 0 -15 -1 -444 -1 -954 l-1 -926 -26 -7 c-56 -14 -414 -14 -501 0 -47 8
-100 17 -119 20 -75 12 -328 109 -351 134 -3 4 -18 13 -34 21 -38 20 -160 122
-214 179 -200 215 -331 566 -369 996 -15 165 -7 643 12 744 1 9 6 39 9 66 4
28 9 57 11 65 2 8 7 31 10 50 32 191 134 451 235 600 139 204 328 352 555 434
71 26 175 52 236 60 19 3 52 8 74 12 50 8 330 9 410 0 71 -7 202 -25 236 -31
105 -19 414 -108 511 -146 27 -10 53 -19 58 -19 28 0 216 476 266 675 18 70
43 195 50 245 2 19 8 60 12 90 4 30 7 77 7 104 l0 49 -70 29 c-160 67 -423
149 -565 177 -30 6 -66 14 -80 16 -23 5 -118 19 -200 30 -19 2 -64 7 -100 11
-36 3 -85 8 -110 10 -54 5 -558 13 -562 9z"/>
<path d="M1105 8710 c-38 -4 -101 -11 -140 -14 -38 -4 -81 -9 -95 -11 -14 -2
-46 -6 -72 -9 -116 -14 -143 -18 -148 -23 -3 -3 -6 -26 -7 -51 -3 -91 -13
-338 -18 -447 -10 -223 -16 -373 -20 -475 -4 -120 -14 -358 -20 -505 -3 -55
-7 -165 -10 -245 -3 -80 -8 -197 -10 -260 -13 -296 -17 -392 -30 -725 -8 -207
-14 -356 -20 -485 -3 -69 -7 -181 -10 -250 -3 -69 -7 -177 -10 -240 -3 -63 -7
-180 -10 -260 -3 -80 -8 -185 -10 -235 -2 -49 -7 -163 -10 -253 -3 -90 -8
-193 -10 -230 -2 -37 -6 -148 -10 -247 -3 -99 -7 -214 -10 -255 -2 -41 -7
-154 -10 -250 -4 -96 -8 -194 -10 -217 -3 -47 -3 -46 75 -58 47 -8 67 -11 110
-20 14 -2 52 -7 85 -11 33 -3 69 -8 80 -10 32 -6 234 -17 315 -17 118 1 264
13 405 34 189 29 211 34 212 52 0 6 4 136 8 287 4 151 8 327 10 390 2 63 6
223 10 355 3 132 8 303 10 380 2 77 7 244 10 370 3 127 8 298 10 380 2 83 7
258 10 390 3 132 8 292 10 355 2 63 5 162 6 220 2 103 2 104 17 70 13 -32 69
-184 111 -305 10 -27 71 -194 136 -370 64 -176 125 -342 135 -370 9 -27 90
-250 180 -495 89 -245 170 -467 180 -494 19 -54 28 -61 80 -70 19 -3 46 -8 60
-11 124 -26 403 -36 585 -22 94 8 102 9 225 27 41 7 85 13 98 15 13 1 27 6 31
11 4 5 38 86 76 179 37 94 73 184 81 200 7 17 41 100 75 185 73 184 76 193 78
202 1 4 12 31 25 60 19 42 377 927 507 1253 16 40 29 61 30 50 2 -24 4 -75 14
-345 7 -210 9 -257 19 -605 4 -110 8 -240 11 -290 3 -49 7 -182 10 -295 3
-113 8 -252 10 -310 2 -58 7 -179 10 -270 6 -180 14 -411 20 -590 10 -294 18
-516 17 -532 -1 -19 44 -31 208 -53 25 -3 56 -8 70 -10 119 -18 250 -27 400
-26 216 0 303 7 490 38 202 33 190 28 185 71 -2 20 -6 114 -10 207 -4 94 -8
195 -10 225 -2 30 -6 118 -10 195 -3 77 -8 176 -10 220 -5 89 -13 269 -20 420
-2 55 -7 143 -9 195 -7 121 -15 292 -21 445 -3 66 -7 156 -10 200 -4 76 -9
175 -20 430 -3 61 -7 148 -10 195 -2 47 -7 144 -10 215 -4 72 -8 162 -10 200
-2 39 -7 133 -10 210 -3 77 -8 176 -10 220 -3 44 -7 136 -10 205 -3 69 -8 166
-10 215 -5 94 -12 235 -20 415 -6 140 -15 337 -20 430 -2 41 -7 134 -10 205
-3 72 -8 168 -10 215 -2 47 -7 148 -11 225 -3 77 -8 143 -10 146 -2 4 -30 10
-61 14 -32 4 -64 8 -73 10 -20 4 -110 14 -250 30 -111 12 -518 13 -570 1 -14
-3 -50 -7 -80 -10 -30 -3 -66 -8 -80 -10 -28 -5 -93 -14 -160 -22 -25 -3 -48
-8 -52 -12 -4 -4 -36 -81 -71 -172 -151 -385 -258 -656 -267 -675 -5 -11 -52
-130 -105 -265 -52 -135 -99 -254 -104 -265 -5 -11 -34 -83 -64 -160 -164
-420 -200 -513 -212 -540 -13 -30 -91 -227 -249 -629 -48 -120 -89 -223 -93
-229 -3 -5 -29 53 -58 129 -28 76 -125 330 -215 564 -90 234 -173 452 -186
485 -12 33 -70 186 -129 340 -59 154 -120 314 -135 355 -44 118 -180 473 -190
495 -5 11 -55 142 -111 290 -56 149 -104 273 -108 277 -6 7 -183 32 -311 44
-36 3 -76 8 -90 11 -41 8 -479 10 -555 3z"/>
</g>
</svg>
